<?xml version="1.0" encoding="utf-8"?><svg xmlns="http://www.w3.org/2000/svg" xmlns:xlink="http://www.w3.org/1999/xlink" viewBox="0 0 80 80" xml:space="preserve"><polygon fill="#A5E4F6" points="29.9,27.3 29.9,36 37.2,29.9 "/><polygon fill="#01BBEC" points="29.9,57.8 29.9,68.9 35.8,60.8 "/><polygon fill="#01BBEC" points="30.6,0 39.2,25.5 47.7,0 "/><polygon fill="#009FE7" points="64.5,17.6 66.9,17.6 80,0.9 80,0 53.9,0 "/><polygon fill="#009FE7" points="37.9,33.1 29.9,39.8 29.9,54.6 37.1,58.2 "/><polygon fill="#009FE7" points="15,17.6 29.9,17.6 29.9,24.2 36.5,26.6 28,1.5 "/><polygon fill="#01BBEC" points="0,9 0,17.6 5.5,17.6 "/><polygon fill="#009FE7" points="38.3,62.3 29.9,73.7 29.9,80 50.1,80 50.1,75.9 "/><polygon fill="#A5E4F6" points="8.9,17.6 11.3,17.6 25.5,0 0,0 0,3.6 "/><polygon fill="#01BBEC" points="70.6,17.6 80,17.6 80,5.6 "/><polygon fill="#A5E4F6" points="50.1,57.5 41.2,61.2 50.1,71.5 "/><polygon fill="#01BBEC" points="50.1,35 50.1,27.3 43.1,29.7 "/><polygon fill="#A5E4F6" points="50.7,0.3 41.7,27.1 50.1,24.2 50.1,17.6 61.1,17.6 "/><polygon fill="#01BBEC" points="50.1,38.6 40.8,31.7 40,58.5 50.1,54.3 "/><polygon fill="none" points="80,0 0,0 0,17.6 29.9,17.6 29.9,80 50.1,80 50.1,17.6 80,17.6 "/></svg>